<svg width="42" height="42" viewBox="0 0 42 42" fill="none" xmlns="http://www.w3.org/2000/svg">
<path d="M21 29.3334L23.9166 26.4167L20.5833 23.0834H29.3333V18.9167H20.5833L23.9166 15.5834L21 12.6667L12.6666 21.0001L21 29.3334ZM21 41.8334C18.118 41.8334 15.4097 41.2862 12.875 40.1917C10.3402 39.0987 8.13538 37.6147 6.26038 35.7397C4.38538 33.8647 2.90135 31.6598 1.80829 29.1251C0.713848 26.5904 0.166626 23.882 0.166626 21.0001C0.166626 18.1181 0.713848 15.4098 1.80829 12.8751C2.90135 10.3404 4.38538 8.1355 6.26038 6.2605C8.13538 4.3855 10.3402 2.90078 12.875 1.80633C15.4097 0.713276 18.118 0.166748 21 0.166748C23.8819 0.166748 26.5902 0.713276 29.125 1.80633C31.6597 2.90078 33.8645 4.3855 35.7395 6.2605C37.6145 8.1355 39.0986 10.3404 40.1916 12.8751C41.2861 15.4098 41.8333 18.1181 41.8333 21.0001C41.8333 23.882 41.2861 26.5904 40.1916 29.1251C39.0986 31.6598 37.6145 33.8647 35.7395 35.7397C33.8645 37.6147 31.6597 39.0987 29.125 40.1917C26.5902 41.2862 23.8819 41.8334 21 41.8334ZM21 37.6668C25.6527 37.6668 29.5937 36.0522 32.8229 32.823C36.052 29.5938 37.6666 25.6529 37.6666 21.0001C37.6666 16.3473 36.052 12.4063 32.8229 9.17717C29.5937 5.948 25.6527 4.33342 21 4.33342C16.3472 4.33342 12.4062 5.948 9.17704 9.17717C5.94788 12.4063 4.33329 16.3473 4.33329 21.0001C4.33329 25.6529 5.94788 29.5938 9.17704 32.823C12.4062 36.0522 16.3472 37.6668 21 37.6668Z" fill="#0E132C"/>
</svg>
